<svg id="Layer_1" data-name="Layer 1" xmlns="http://www.w3.org/2000/svg" viewBox="0 0 156 157"><defs><style>.cls-1{fill:#fff;}</style></defs><path class="cls-1" d="M27.7,116.17c-3.37,0-5.75-1.66-6.51-4.57a9.1,9.1,0,0,1-.22-2.26q0-33.24,0-66.5c0-2.46.8-5.6,4.59-6.6a5.79,5.79,0,0,1,1.51-.18H63.15a1.62,1.62,0,0,1,1.46.7.94.94,0,0,1,0,1,2.59,2.59,0,0,1-1.17.79,1,1,0,0,1-.41,0H28c-3.26,0-4.47,1.22-4.47,4.48v66.13c0,3.19,1.31,4.5,4.51,4.5H128c3.2,0,4.51-1.31,4.51-4.5V70a7.44,7.44,0,0,1,.12-1.58,1.21,1.21,0,0,1,2.33.1,7.42,7.42,0,0,1,.08,1.26q0,19.71,0,39.41c0,4.56-2.41,7-7,7H27.7Z"/><path class="cls-1" d="M56.94,99.18A3.84,3.84,0,0,1,55.65,99a1.14,1.14,0,0,1-.72-1.23,1.2,1.2,0,0,1,1.13-1.08h62.8a4.36,4.36,0,0,1,.51,0,1,1,0,0,1,1,.94A1,1,0,0,1,119.8,99a3.49,3.49,0,0,1-1.3.19H56.94Z"/><path class="cls-1" d="M96.45,135.56H59.5a6,6,0,0,1-1.23-.1,1.19,1.19,0,0,1-.14-2.3A11.06,11.06,0,0,1,60,133l.5,0h4.15v-3c0-1.61,0-3.18,0-4.76a3.92,3.92,0,0,1,.11-1.18,1.24,1.24,0,0,1,1.11-.73H66a1.34,1.34,0,0,1,1.12,1.35c0,1.35,0,2.75,0,4.09v4.15H88.84v-3.37c0-1.58,0-3.13,0-4.68,0-1,.64-1.54,1.24-1.54a1.36,1.36,0,0,1,.67.2,1.19,1.19,0,0,1,.59,1.23c0,1.62,0,3.23,0,4.91V133h4.08c.57,0,1.13,0,1.69,0a1.71,1.71,0,0,1,1.44.7.91.91,0,0,1,0,.93,3.58,3.58,0,0,1-1.21.91s0,0,0,0h-.88Z"/><path class="cls-1" d="M40.4,99.21c-1.27,0-2.56,0-3.82-.08a1,1,0,0,1-.72-.31,1.41,1.41,0,0,1-.3-1c.06-.86.75-1.07,1.32-1.09H44a1.17,1.17,0,0,1,1.31,1.08,1.36,1.36,0,0,1-.31,1,1,1,0,0,1-.72.33C43,99.19,41.67,99.21,40.4,99.21Z"/><path class="cls-1" d="M99.83,82.22l-2.76,0a3.79,3.79,0,0,1-3.92-3.08c-.13-.52-.23-1-.34-1.57l-.21-1c-.39-1.77-1.51-2.83-3-2.83a4,4,0,0,0-2.22.77l-.43.29c-.55.37-1.11.75-1.68,1.1a4.25,4.25,0,0,1-2.19.67,3.73,3.73,0,0,1-2.59-1.1C79,74,77.58,72.58,76.2,71.12a3.78,3.78,0,0,1-.42-4.68c.31-.51.65-1,1-1.51l.42-.62A3.47,3.47,0,0,0,77.75,61,3.41,3.41,0,0,0,75.06,59l-.62-.13-1.57-.32a3.82,3.82,0,0,1-3.4-3.87c-.07-1.75-.07-3.62,0-5.71a3.77,3.77,0,0,1,3.25-3.91c.43-.11.87-.19,1.31-.27s.72-.13,1.07-.21a3.36,3.36,0,0,0,2.63-1.88,3.53,3.53,0,0,0-.5-3.37l-.13-.21a16.93,16.93,0,0,1-1.84-3.62,3.08,3.08,0,0,1,1-3.06l1.09-1.13a40.24,40.24,0,0,1,3.12-3,8.76,8.76,0,0,1,1.93-1.06l.8-.07h.24a5.57,5.57,0,0,1,3.16,1.48c.29.21.58.43.87.62a3.5,3.5,0,0,0,2,.7A2.7,2.7,0,0,0,91,29.42a3.83,3.83,0,0,0,1.41-1.8,15.76,15.76,0,0,0,.45-1.93q.1-.57.24-1.14a3.61,3.61,0,0,1,3.58-3.05c1-.05,2.09-.07,3.1-.07s2.14,0,3.18.08a3.72,3.72,0,0,1,3.58,3.18c.09.4.17.8.25,1.2L107,27c.4,1.88,1.53,3,3,3a3.88,3.88,0,0,0,2.33-.88c1.78-1.34,3.13-2,4.25-2,1.27,0,2.47.79,4.29,2.81.43.48.9.94,1.36,1.39s.73.71,1.07,1.08a3.7,3.7,0,0,1,.49,4.86c-.3.49-.62,1-.94,1.44l-.46.69a3.16,3.16,0,0,0,2.11,5.2l1,.21c.52.11,1,.21,1.56.34a3.77,3.77,0,0,1,3.05,3.71c0,1.83,0,3.75,0,5.85a3.92,3.92,0,0,1-3.2,3.85c-.78.17-1.57.33-2.36.48A3.38,3.38,0,0,0,121.91,61a3.45,3.45,0,0,0,.58,3.34l.43.64c.36.52.71,1,1,1.57a3.71,3.71,0,0,1-.48,4.58c-1.42,1.51-2.9,3-4.39,4.39a3.61,3.61,0,0,1-2.53,1h0a4,4,0,0,1-2.06-.59c-.52-.32-1-.66-1.53-1l-.78-.52a3.79,3.79,0,0,0-2.09-.7,3.15,3.15,0,0,0-3,2.85l-.11.55c-.12.62-.24,1.23-.37,1.84a3.92,3.92,0,0,1-4,3.27ZM89,70.63a1.91,1.91,0,0,1,.81.21c1.25.6,2.52,1.1,3.6,1.51a1.54,1.54,0,0,1,1.15,1.28c.21,1.16.46,2.32.71,3.5l.53,2.47h7.94l.54-2.41c.26-1.15.52-2.3.74-3.45a1.7,1.7,0,0,1,1.29-1.44,37.39,37.39,0,0,0,3.52-1.45,1.83,1.83,0,0,1,.81-.22,1.54,1.54,0,0,1,.88.31l.34.23c1.07.73,2.17,1.48,3.3,2.17a2.45,2.45,0,0,0,1.22.31,1.76,1.76,0,0,0,1.29-.47c1-1,1.9-2,2.88-3.09l1.52-1.68-1.18-1.83c-.62-1-1.3-2-2-3.09a1.48,1.48,0,0,1-.1-1.63c.58-1.25,1.1-2.49,1.55-3.69A1.58,1.58,0,0,1,121.69,57l.68-.12c1.1-.2,2.23-.41,3.35-.68.55-.14,1.76-.79,1.81-1.85.06-1.42,0-2.85,0-4.24V47.8l-.95-.2-1.44-.31c-1.1-.24-2.25-.49-3.4-.68a1.71,1.71,0,0,1-1.51-1.42A18.6,18.6,0,0,0,119,42.05a1.8,1.8,0,0,1,.13-2.17c.67-.92,1.29-1.88,1.89-2.82l.79-1.22.56-.85-5.83-5.47-2,1.25-3.08,2a1.48,1.48,0,0,1-.81.27,2,2,0,0,1-.83-.21l-.48-.22c-1-.44-2-.89-3-1.25A1.67,1.67,0,0,1,105,29.81c-.19-1.11-.42-2.19-.67-3.34q-.17-.73-.33-1.5l-.2-1h-3.66c-.91,0-1.81,0-2.71.05a2.36,2.36,0,0,0-1.9,1.68c-.4,1.5-.73,3.05-1,4.38a1.51,1.51,0,0,1-1.11,1.19l-.53.19a18.41,18.41,0,0,0-2.7,1.13,2.48,2.48,0,0,1-1.18.36,2.36,2.36,0,0,1-1.4-.56c-.86-.65-1.77-1.24-2.66-1.81l-1.19-.77L83,29.28,77.49,35.1l1.25,2c.63,1,1.29,2,2,3a1.62,1.62,0,0,1,.09,1.75c-.53,1.18-1,2.38-1.48,3.57-.31.8-.7,1-1.19,1.12-1.19.23-2.37.48-3.57.74l-2.47.52v8l2.39.52L78,57a1.63,1.63,0,0,1,1.37,1.22,25.27,25.27,0,0,0,1.36,3.34,1.83,1.83,0,0,1-.13,2.19c-.65.92-1.25,1.84-1.88,2.8-.27.42-1.39,2.11-1.39,2.11l5.89,5.42,2-1.25c1-.61,2-1.26,3-1.93A1.68,1.68,0,0,1,89,70.63Z"/><path class="cls-1" d="M99.76,65.21c-6.51,0-12.42-5.08-13.16-11.31A13.47,13.47,0,0,1,96.78,38.81a20.42,20.42,0,0,1,2.1-.32l.85-.11.88.1a14.26,14.26,0,0,1,2,.29,1.11,1.11,0,0,1,.88,1.43,1.07,1.07,0,0,1-1.12.94h-.15c-.81-.08-1.51-.11-2.15-.11a10.85,10.85,0,1,0-.22,21.7l.59,0a10.8,10.8,0,0,0,10.1-9.05,14.18,14.18,0,0,0,0-3.47c-.09-.83,0-1.85,1-2a1.37,1.37,0,0,1,.28,0c.24,0,1,0,1.3,1.72A13.37,13.37,0,0,1,99.91,65.2Z"/></svg>