<svg id="Layer_1" data-name="Layer 1" xmlns="http://www.w3.org/2000/svg" viewBox="0 0 156 157"><defs><style>.cls-1{fill:#4179a8;}</style></defs><path class="cls-1" d="M20.67,128V20.71H84.29V53.32l1.09.15a2.33,2.33,0,0,0,.41,0h10.4q7.44,0,14.89,0a2.57,2.57,0,0,0,1.87-1,6.4,6.4,0,0,1,5.44-2.67l7.37,0h9.57v58.38a1.68,1.68,0,0,0-.14.3c-1.07,3.41-3.14,4.93-6.69,4.93H84.26V128Zm1.7-1.64H82.55v-12.8H22.37ZM62.42,74.76q0,14.51,0,29c0,.44,0,.89,0,1.34,0,1.86.1,3.61-.81,5.24l-.84,1.49h67.71c3.3,0,5.19-1.92,5.19-5.25V51.51H118.84c-3.57,0-5.38,1.82-5.39,5.38v5.54h-51Zm-10.94,32a6.27,6.27,0,0,0,0,.75,4.61,4.61,0,0,0,6.21,4c2-.71,3.05-2.47,3.05-4.93V60.76h51V55.24H51.48Zm-29.11,5H51.25l-.64-1.41c-.91-2-.84-4.1-.77-6.31a24.9,24.9,0,0,0-.12-4.22L49.6,99H22.37Zm0-14.57H49.79V84.41H22.38Zm0-14.6H49.78V69.79H22.4Zm0-14.55H49.79V55.24H22.41Zm0-14.6H82.56V40.63H22.37Zm0-14.59H82.59V29.63h-3.5V28h3.49V22.43H22.37V28h3.51v1.66H22.37Z"/><rect class="cls-1" x="72.55" y="131.17" width="7.23" height="4.62"/><rect class="cls-1" x="25.19" y="131.17" width="7.23" height="4.62"/><path class="cls-1" d="M97.23,95.21V84.05c0-2-1.14-3.36-2.81-3.36h-.1c-1.66.06-2.73,1.37-2.74,3.35V95.17H89.94v-2.7q0-4.5,0-9A4.49,4.49,0,0,1,94.38,79a4.39,4.39,0,0,1,2.26.63,2.75,2.75,0,0,0,1.42.46,2.65,2.65,0,0,0,1.38-.44,4.38,4.38,0,0,1,2.28-.65,4.47,4.47,0,0,1,4.44,4.44q0,4.14,0,8.28V95.2h-1.64V91.93c0-2.74,0-5.47,0-8.21a2.87,2.87,0,0,0-2.81-3,2.93,2.93,0,0,0-2.83,3.06V95.21Z"/><path class="cls-1" d="M116.66,95.27h-4.79V93.61h7.6a3.49,3.49,0,0,0,2.52-1,2.58,2.58,0,0,0,.74-1.92,3,3,0,0,0-3.2-2.76h-3.31a4.47,4.47,0,0,1,0-8.93h8v1.64h-7.06c-3.25,0-3.76,1.74-3.78,2.77a2.57,2.57,0,0,0,.71,1.89,4.09,4.09,0,0,0,3,1h2.94a4.47,4.47,0,0,1,.18,8.91Q118.49,95.27,116.66,95.27Z"/><path class="cls-1" d="M84.2,95.33l-1.37,0A27.93,27.93,0,0,1,77.74,95c-3.81-.74-6.5-4.71-6-8.85a8.19,8.19,0,0,1,8-7.07h4.54v1.65H80.19a6.75,6.75,0,0,0-4.55,1.59,6.38,6.38,0,0,0-1.92,7,6.5,6.5,0,0,0,6,4.38c.7,0,1.4,0,2.1,0H84.2Z"/><rect class="cls-1" x="31.67" y="28.08" width="41.64" height="1.5"/><rect class="cls-1" x="57.18" y="46.28" width="16.12" height="1.5"/><rect class="cls-1" x="28.01" y="46.29" width="1.54" height="1.49"/><rect class="cls-1" x="35.34" y="46.29" width="1.5" height="1.52"/><rect class="cls-1" x="42.63" y="46.3" width="1.46" height="1.54"/><rect class="cls-1" x="49.93" y="46.3" width="1.46" height="1.54"/><rect class="cls-1" x="57.2" y="119.23" width="19.75" height="1.47"/><rect class="cls-1" x="28.06" y="119.17" width="1.48" height="1.54"/><rect class="cls-1" x="35.34" y="119.2" width="1.54" height="1.48"/><rect class="cls-1" x="42.64" y="119.21" width="1.5" height="1.5"/><rect class="cls-1" x="49.88" y="119.2" width="1.54" height="1.49"/><rect class="cls-1" x="28.05" y="104.62" width="1.5" height="1.52"/><rect class="cls-1" x="35.3" y="104.62" width="1.54" height="1.48"/><rect class="cls-1" x="42.59" y="104.62" width="1.54" height="1.48"/><rect class="cls-1" x="42.57" y="75.47" width="1.54" height="1.46"/><rect class="cls-1" x="35.33" y="75.45" width="1.52" height="1.5"/><rect class="cls-1" x="28.05" y="75.46" width="1.5" height="1.52"/><rect class="cls-1" x="42.59" y="60.87" width="1.54" height="1.49"/><rect class="cls-1" x="35.34" y="60.85" width="1.5" height="1.5"/><rect class="cls-1" x="28.06" y="60.89" width="1.48" height="1.54"/><rect class="cls-1" x="28.05" y="90.04" width="1.46" height="1.54"/><rect class="cls-1" x="35.31" y="90.05" width="1.52" height="1.49"/><rect class="cls-1" x="42.62" y="90.03" width="1.52" height="1.5"/></svg>