<svg id="Layer_1" data-name="Layer 1" xmlns="http://www.w3.org/2000/svg" viewBox="0 0 156 157"><defs><style>.cls-1{fill:#fff;}</style></defs><path class="cls-1" d="M78.08,132.56A20,20,0,0,1,70.45,131q-19.06-7.8-38.11-15.68l-8.55-3.52a5.39,5.39,0,0,1-3.63-5.34,5.83,5.83,0,0,1,3.66-5.64l11-4.56L41,93.72l.92-.39,1.91-.84L30.43,87l-6.75-2.78a5.21,5.21,0,0,1-3.51-5.08c-.07-2.78,1-4.69,3.35-5.69,3.71-1.62,7.52-3.17,11.21-4.66l2.87-1.17a1.94,1.94,0,0,1,.74-.16,1.09,1.09,0,0,1,1,.75,1.3,1.3,0,0,1,0,1,1.48,1.48,0,0,1-.87.78c-2.12.89-4.25,1.76-6.38,2.64s-4.56,1.88-6.84,2.84a4.6,4.6,0,0,0-1.78,1.15,3.29,3.29,0,0,0-.76,2.94A3.51,3.51,0,0,0,25,81.94L49.68,92.11l21,8.68A19.09,19.09,0,0,0,78,102.33a18.38,18.38,0,0,0,7-1.47c15-6.23,30.16-12.46,45.67-18.81a3.3,3.3,0,0,0,2.41-3.23,3.54,3.54,0,0,0-2.44-3.37c-3.07-1.25-6.14-2.52-9.2-3.78-3.91-1.61-7.83-3.23-11.75-4.82a2.85,2.85,0,0,0-1.08-.2,3,3,0,0,0-1.11.2c-5.94,2.41-13.77,5.6-21.71,8.93A20.48,20.48,0,0,1,78,77.42a20.76,20.76,0,0,1-7.89-1.63L35.59,61.56l-11.9-4.91a5.3,5.3,0,0,1-3.53-5.17,5.77,5.77,0,0,1,3.55-5.7q15.39-6.39,30.8-12.73l3.75-1.55c4.93-2,9.86-4.07,14.81-6.07a13,13,0,0,1,4.93-1,13.5,13.5,0,0,1,5.13,1.06l38.29,15.77c3.55,1.46,7.23,3,10.82,4.51a6,6,0,0,1,3.51,4.52,5.72,5.72,0,0,1-1.63,5.17,7.82,7.82,0,0,1-2.32,1.37q-6.17,2.58-12.36,5.12l-4.65,1.92c-.24.09-.47.2-.77.34l-1.78.81,9.67,4,3.29,1.35c2.3,1,4.61,1.89,6.9,2.87a6,6,0,0,1,3.34,3.44,6.15,6.15,0,0,1-.24,4.86,5.77,5.77,0,0,1-3.35,2.82q-10.27,4.22-20.54,8.46l-8,3.29-5.41,2.22c-4,1.65-8,3.3-12,5A20.17,20.17,0,0,1,78.05,105a20.94,20.94,0,0,1-8-1.68c-7.23-3-14.47-6-21.71-8.91a2.87,2.87,0,0,0-1.07-.2,2.59,2.59,0,0,0-.91.16c-8.52,3.48-15.07,6.2-21.25,8.81a4.17,4.17,0,0,0-2,1.93,3.1,3.1,0,0,0-.15,2.48,3.62,3.62,0,0,0,2.12,2l24.51,10.1,6.54,2.7q7.52,3.11,15,6.18a18.15,18.15,0,0,0,6.92,1.42,17.81,17.81,0,0,0,6.79-1.39q22.88-9.45,45.78-18.86c1.29-.53,2.6-1.33,2.55-3.26a3.6,3.6,0,0,0-2.63-3.47c-3.29-1.33-6.56-2.69-9.83-4l-5.46-2.25c-1-.43-1.19-.88-1.1-1.47A1.14,1.14,0,0,1,115.32,94a2.18,2.18,0,0,1,.83.18c3.5,1.43,7,2.88,10.49,4.32l3,1.22.79.33c.7.27,1.42.56,2.09.89a5.69,5.69,0,0,1,3.31,5.65,5.27,5.27,0,0,1-3.5,5.11l-14.45,6q-16.36,6.74-32.73,13.46A18.68,18.68,0,0,1,78.08,132.56Zm-.46-57.32.61-.15c.63-.15,1.28-.28,1.93-.41a24.38,24.38,0,0,0,4.24-1.14c9.95-4.05,20-8.21,29.82-12.23l16.62-6.83a3.21,3.21,0,0,0,2.33-3.16,3.46,3.46,0,0,0-2.3-3.35l-6.53-2.69C110.77,39.69,96.74,33.91,83,28.16a12.91,12.91,0,0,0-5-1.06,12.63,12.63,0,0,0-4.89,1Q55.93,35.28,38.72,42.35L25.09,48a3.53,3.53,0,0,0-2.35,3.47,3.27,3.27,0,0,0,2.33,3Q39,60.16,52.9,65.9L67.79,72l1.13.47c2.66,1.12,5.41,2.28,8.49,2.28h.12Z"/></svg>