<svg id="Layer_1" data-name="Layer 1" xmlns="http://www.w3.org/2000/svg" viewBox="0 0 156 157"><defs><style>.cls-1{fill:#4179a8;}</style></defs><path class="cls-1" d="M74,64.39c-1.75,0-3.51,0-5.26-.06A1.67,1.67,0,0,1,67,62.48c0-3.5,0-6.91,0-10.13a1.68,1.68,0,0,1,1.87-1.8l5.11,0,5,0a1.6,1.6,0,0,1,1.8,1.82c0,1.16,0,2.31,0,3.46v3c0,1.19,0,2.39,0,3.59s-.59,1.93-1.72,2C77.41,64.37,75.72,64.39,74,64.39ZM69.44,62h9.08V52.87H69.44Z"/><path class="cls-1" d="M56.2,64.39c-1.7,0-3.4,0-5.1,0-1.14,0-1.73-.67-1.74-1.92s0-2.3,0-3.45v-3c0-1.14,0-2.28,0-3.41,0-1.41.55-2,1.89-2,1.61,0,3.21,0,4.82,0l5.2,0c1.24,0,1.87.61,1.89,1.78.06,3.44.06,6.88,0,10.23a1.65,1.65,0,0,1-1.81,1.78C59.63,64.37,57.91,64.39,56.2,64.39ZM51.69,62h9.08V52.84H51.69Z"/><path class="cls-1" d="M38.57,64.39q-2.49,0-5,0a1.81,1.81,0,0,1-2-2.06c0-3.27,0-6.54,0-9.8a1.72,1.72,0,0,1,1.95-2c.65,0,1.3,0,2,0H41.6c.65,0,1.3,0,2,0a1.66,1.66,0,0,1,1.86,1.9q0,4.95,0,9.91a1.73,1.73,0,0,1-1.93,2C41.85,64.38,40.21,64.39,38.57,64.39ZM34,61.93h9.14V52.85H34Z"/><path class="cls-1" d="M56.21,45l-5,0a1.7,1.7,0,0,1-1.87-1.91c0-1.15,0-2.3,0-3.45V36.55c0-1.16,0-2.32,0-3.48s.6-1.89,1.85-1.9h10a1.69,1.69,0,0,1,1.91,1.77c.06,3.32.06,6.76,0,10.24A1.7,1.7,0,0,1,61.26,45Zm-4.56-2.39h9.13V33.48H51.65Z"/><path class="cls-1" d="M74,45l-5.07,0A1.71,1.71,0,0,1,67,43.16c-.06-3.61-.06-7,0-10.24A1.71,1.71,0,0,1,69,31.17h9.91c1.36,0,1.95.58,2,1.91,0,1.16,0,2.32,0,3.49v3.09c0,1.15,0,2.29,0,3.44A1.69,1.69,0,0,1,79,45Zm-4.55-2.38h9.08V33.49H69.43Z"/><path class="cls-1" d="M38.53,45c-1.67,0-3.35,0-5,0a1.79,1.79,0,0,1-1.92-2c0-3.26,0-6.53,0-9.8a1.77,1.77,0,0,1,2-2h9.91A1.68,1.68,0,0,1,45.42,33c0,3.34,0,6.69,0,10A1.72,1.72,0,0,1,43.54,45ZM34,42.62h9.14V33.46H34Z"/><path class="cls-1" d="M117.84,61.12v0l0,0v0Z"/><path class="cls-1" d="M117.84,61.12v0l0,0v0Z"/><path class="cls-1" d="M32.33,136.33a7.72,7.72,0,0,1-7.84-7.74q0-33.91,0-67.83V47.91c0-.54.14-1.44,1.09-1.44.77,0,1.14.54,1.14,1.55v67.61h59V94.19c0-21.35,0-43.43,0-65.15A6.09,6.09,0,0,0,84,24.61a6.22,6.22,0,0,0-4.48-1.75q-11,0-21.85,0H33c-4,0-6.24,2.28-6.24,6.25V39.3c0,.37-.08,1.57-1.11,1.57S24.48,40,24.48,39.3V37.11c0-2.88,0-5.76,0-8.64a7.76,7.76,0,0,1,5.91-7.6,2.19,2.19,0,0,0,.46-.2H81.54l.78.29a11.53,11.53,0,0,1,1.74.75,7.77,7.77,0,0,1,4,7.17c0,1.19,0,2.39,0,3.62v2.33h4.78c2.29,0,3.27,1,3.27,3.33v1.47c0,1.52,0,3,0,4.56A1.68,1.68,0,0,0,97.39,46c1.81.64,3.58,1.36,5.45,2.12l2.57,1,1.6-1.63c1.13-1.14,2.31-2.34,3.5-3.52a3.44,3.44,0,0,1,2.32-1.23,3.49,3.49,0,0,1,2.36,1.25q3.56,3.54,7.1,7.1c1.64,1.64,1.64,3,0,4.68l-3.08,3.08L118.13,60l-.1-.28-.65,1-.19.19v0l-.06.08.15.36.17.34h0l.51,1.33c.83,2.15,1.63,4.24,2.47,6.33a1.69,1.69,0,0,0,1.44.79c1.06,0,2.12,0,3.18,0h3.45a2.68,2.68,0,0,1,3,2.93q0,5.36,0,10.72a2.67,2.67,0,0,1-2.94,3h-3.4l-3.21,0h0a1.52,1.52,0,0,0-1.63,1.13c-.69,1.86-1.42,3.72-2.18,5.63l-1,2.5,5,5c1.8,1.82,1.8,3.11,0,4.93l-.64.64L115.13,113a3.34,3.34,0,0,1-2.29,1.18,3.41,3.41,0,0,1-2.32-1.2c-1.17-1.18-2.34-2.37-3.44-3.5l-1.62-1.65-2.24.86c-2.17.83-4.21,1.61-6.25,2.44a1.79,1.79,0,0,0-.84,1.52c0,1.43,0,2.85,0,4.28,0,.7,0,1.41,0,2.12A2.78,2.78,0,0,1,93,122.18H88.05v2.33c0,1.22,0,2.41,0,3.6-.07,4.23-2.47,7.26-6.43,8.1a7.37,7.37,0,0,1-1.46.12H32.33Zm43-2.21c1.54,0,3.08,0,4.62,0a5.56,5.56,0,0,0,5.77-5.76c0-1.8,0-3.61,0-5.42v-4.84h-59v9.62c0,4.2,2.23,6.41,6.43,6.41H75.32Zm25.23-41.8a1,1,0,0,1,.79.43c.17.22.71.89-.55,1.89a19.7,19.7,0,0,1-7.42,3.79c-1.06.27-2.12.46-3.25.65l-1.5.27-.49.1V119.9h5.69v-8.83c0-1.41.1-1.53,1.46-1.87a32.51,32.51,0,0,0,8.66-3.54,3.67,3.67,0,0,1,1.45-.64c.3,0,.65.25,1.37,1l6,6,8.51-8.59-2.05-2.06q-2.11-2.13-4.29-4.28a1.34,1.34,0,0,1-.27-1.91,31.09,31.09,0,0,0,3.93-9.5,1.25,1.25,0,0,1,1.4-1.12c1.08,0,2.11,0,3.15,0h6.08V72.43h-8.88c-1.33,0-1.48-.12-1.8-1.38a32.25,32.25,0,0,0-3.71-9c-.7-1.14-.67-1.39.3-2.36l6.15-6.16L112.75,45l-2.07,2.09c-1.43,1.43-2.85,2.86-4.27,4.31a1.62,1.62,0,0,1-1.11.58,1.55,1.55,0,0,1-.8-.27,31.39,31.39,0,0,0-9.61-4,1.3,1.3,0,0,1-1.08-1.49c0-1.51,0-3,0-4.54V37.1H88.16V57.53l.48.1,1.72.31a33,33,0,0,1,3.35.72,20.49,20.49,0,0,1,14.65,22.08,24.49,24.49,0,0,1-1.51,5.52c-.17.47-.33.94-.49,1.41a1.08,1.08,0,0,1-1,.81,1.23,1.23,0,0,1-.55-.13c-.79-.38-.65-1.17-.39-1.77,0-.06.19-.4.19-.4a18.37,18.37,0,0,0-7.83-23.79,17.75,17.75,0,0,0-8-2.29l-.63,0V96.7l.6.13a1.24,1.24,0,0,0,.37.06,6.32,6.32,0,0,0,.77-.06,18.94,18.94,0,0,0,9.52-4A2,2,0,0,1,100.55,92.32Z"/><path class="cls-1" d="M55,127.2c-.23,0-.46,0-.68,0a1.07,1.07,0,0,1-1.07-1.12,1,1,0,0,1,1-1.1c.63,0,1.27,0,1.9,0s1.35,0,2,.06a1,1,0,0,1,1,1.11,1.15,1.15,0,0,1-1.13,1.11l-.69,0-1.2,0Z"/></svg>