<svg id="Layer_1" data-name="Layer 1" xmlns="http://www.w3.org/2000/svg" viewBox="0 0 156 157"><defs><style>.cls-1{fill:#4179a8;}</style></defs><path class="cls-1" d="M108.53,124.39a2,2,0,0,1-2-2,2.13,2.13,0,0,1,2-2.18h0a2.25,2.25,0,0,1,2.1,2.09,2.09,2.09,0,0,1-2,2.13Z"/><path class="cls-1" d="M90,95.37a3.91,3.91,0,0,1-4.25-4.13,2.37,2.37,0,0,0-1.93-2.51,22.42,22.42,0,0,1-5-2.08,2.13,2.13,0,0,0-2.79.37,3.92,3.92,0,0,1-6.14,0c-1.7-1.69-3.4-3.38-5.08-5.09a3.89,3.89,0,0,1,0-6A2.18,2.18,0,0,0,65.27,73a23.16,23.16,0,0,1-2.14-5.18A2.07,2.07,0,0,0,61,66.12h-.53a3.81,3.81,0,0,1-2.78-1.2,4.37,4.37,0,0,1-1.15-3.23c.1-1.64.08-3.29.06-4.89,0-.76,0-1.52,0-2.27a3.94,3.94,0,0,1,4.11-4.26,2.36,2.36,0,0,0,2.49-1.94,23.75,23.75,0,0,1,2-4.88,2.18,2.18,0,0,0-.36-2.87c-1.92-2-1.91-4.12,0-6.08,1.68-1.7,3.37-3.4,5.07-5.08A4.43,4.43,0,0,1,73,28a4.32,4.32,0,0,1,3,1.42,2.3,2.3,0,0,0,1.63.78,2.48,2.48,0,0,0,1.24-.37,24.93,24.93,0,0,1,5.19-2.16,2,2,0,0,0,1.67-2.09,4.16,4.16,0,0,1,3-4.42h9.79a5.05,5.05,0,0,1,2.37,1.71,4.31,4.31,0,0,1,.66,2.56,2,2,0,0,0,1.62,2.22,25.88,25.88,0,0,1,5.39,2.26,2,2,0,0,0,2.58-.36,3.94,3.94,0,0,1,6.31.06l.21.21c1.6,1.59,3.2,3.17,4.78,4.79a3.92,3.92,0,0,1,0,6,2.21,2.21,0,0,0-.42,2.87,24.51,24.51,0,0,1,2.15,5.19,2.1,2.1,0,0,0,2.12,1.66c3,.09,4.4,1.58,4.4,4.56v1.33c0,1.92,0,3.84,0,5.76a3.85,3.85,0,0,1-4,4.17A2.4,2.4,0,0,0,124.1,68,23.73,23.73,0,0,1,122,73.1a2.07,2.07,0,0,0,.35,2.68c2,2.12,2,4.16,0,6.24q-2.49,2.52-5,5a4.42,4.42,0,0,1-3,1.45h0a4.39,4.39,0,0,1-3-1.43,2.25,2.25,0,0,0-1.6-.75,2.37,2.37,0,0,0-1.17.33,25.47,25.47,0,0,1-5.29,2.2A2.08,2.08,0,0,0,101.54,91c-.09,3-1.55,4.38-4.57,4.39H90ZM83.49,43.28c-5.49,4-7.95,9.56-7.09,16.08.83,6.25,4.45,10.89,10.47,13.42A1.55,1.55,0,0,1,88,74.48q0,3.78,0,7.56c0,2.89,0,5.78,0,8.67a2.55,2.55,0,0,0,.61,1.85,2.45,2.45,0,0,0,1.74.6h.11q1.61,0,3.21,0t3.24,0H97a2.37,2.37,0,0,0,1.75-.61,2.52,2.52,0,0,0,.61-1.83c0-2.92,0-5.85,0-8.78q0-3.72,0-7.45a1.55,1.55,0,0,1,1.12-1.7c6-2.54,9.64-7.18,10.46-13.43.86-6.52-1.59-12.08-7.09-16.08a1.43,1.43,0,0,0-1.09-.54,1.32,1.32,0,0,0-1,.48,1.75,1.75,0,0,0-.26,1.92v3q0,3.87,0,7.75a8.69,8.69,0,0,1-.58,3c-1.09,2.89-4.31,5.34-7,5.34a3.91,3.91,0,0,1-.49,0,8.39,8.39,0,0,1-7.48-8.35c0-2.53,0-5,0-7.57V45.14a1.77,1.77,0,0,0-.26-1.92,1.36,1.36,0,0,0-1-.48A1.45,1.45,0,0,0,83.49,43.28Zm18.2-3.21a4.72,4.72,0,0,1,2.19.62C110.44,44.18,114.54,53,113,60.38a19.15,19.15,0,0,1-10.18,13.77,2.2,2.2,0,0,0-1.29,2.11c0,2.2,0,4.41,0,6.68v4l1.55-.47a29.57,29.57,0,0,0,6.2-2.86,2,2,0,0,1,.9-.32c.17,0,.46,0,1,.53s1.06,1,1.57,1.58a2.11,2.11,0,0,0,1.53.74,2,2,0,0,0,1.45-.67c1.4-1.42,2.81-2.82,4.22-4.23l.94-.94a1.89,1.89,0,0,0,0-2.88c-.62-.61-1.23-1.21-1.82-1.84s-.36-1.11-.26-1.28a35.49,35.49,0,0,0,4-9.63c.09-.37.29-.72,1.07-.75.41,0,.83,0,1.24,0s.78,0,1.17,0h.16a2.06,2.06,0,0,0,1.52-.56,2.1,2.1,0,0,0,.57-1.55q0-3.6,0-7.2a2.09,2.09,0,0,0-.56-1.53,2,2,0,0,0-1.45-.55h-.14l-1.1,0-1.2,0c-1,0-1.19-.33-1.36-1a33,33,0,0,0-3.83-9.23,1.07,1.07,0,0,1,.18-1.48c.52-.55,1-1.12,1.62-1.63a2.18,2.18,0,0,0,.83-1.59,2.34,2.34,0,0,0-.8-1.67c-1.61-1.57-3.24-3.19-4.82-4.83a2.31,2.31,0,0,0-1.64-.81,2.16,2.16,0,0,0-1.62.83c-.47.54-1,1.06-1.52,1.54s-.83.49-.93.49a1.54,1.54,0,0,1-.73-.26,31.43,31.43,0,0,0-9-3.76c-.87-.21-1.1-.51-1.11-1.47v-.34c0-.59,0-1.17,0-1.75a2.22,2.22,0,0,0-.52-1.7,2.11,2.11,0,0,0-1.6-.6l-3.47,0-3.63,0h0a2.11,2.11,0,0,0-1.61.59A2.06,2.06,0,0,0,88,25.5c0,.67,0,1.33,0,2v.19c0,1-.29,1.21-1,1.4a32.8,32.8,0,0,0-9.1,3.81,1.52,1.52,0,0,1-.71.25c-.09,0-.37,0-.86-.45s-1.14-1.1-1.62-1.63A2.16,2.16,0,0,0,73,30.3a2.23,2.23,0,0,0-1.58.77c-.82.86-1.66,1.69-2.5,2.53l-1,1c-2.54,2.55-2.54,3.31,0,5.85.92.93,1,1.17.28,2.29a29.51,29.51,0,0,0-3.48,8.52c-.22.94-.49,1.26-1.69,1.27H61.84c-.22,0-.44,0-.66,0l-.32,0a2,2,0,0,0-1.51.58,2.38,2.38,0,0,0-.58,1.8c0,1.15,0,2.29,0,3.44V59.8c0,3.57.55,4.11,4.16,4.12h.21c1.07,0,1.32.33,1.49,1.08a31.07,31.07,0,0,0,3.72,9c.42.7.37,1-.21,1.68a19.56,19.56,0,0,1-1.44,1.44,2.27,2.27,0,0,0-.91,1.67,2.43,2.43,0,0,0,.9,1.79c.85.79,1.69,1.64,2.5,2.47l1,1C71.4,85.29,72,85.94,73,85.94s1.63-.65,2.81-1.83c.74-.73,1-.82,1.22-.82a3,3,0,0,1,1.25.51,25.57,25.57,0,0,0,5.89,2.66l1.53.44v-4c0-2.17,0-4.23,0-6.31A2.59,2.59,0,0,0,84.22,74a19,19,0,0,1-6-28.82c2.15-2.68,4.12-4.21,6.4-5a3.14,3.14,0,0,1,1-.18A2.35,2.35,0,0,1,88,42a6.23,6.23,0,0,1,.22,1.8c-.1,2.43-.09,4.89-.07,7.27,0,1.36,0,2.73,0,4.09a12.16,12.16,0,0,0,.13,2,6,6,0,0,0,4.58,4.69,4.15,4.15,0,0,0,.79.07,5.78,5.78,0,0,0,4.66-2.75,6.38,6.38,0,0,0,.93-3.59v-.7c0-3.62,0-7.24-.08-10.86a7.49,7.49,0,0,1,.24-2A2.31,2.31,0,0,1,101.69,40.07Z"/><path class="cls-1" d="M84.56,135.88l-2.92-.8c-2.32-.64-4.63-1.28-7-1.9q-10.39-2.81-20.8-5.58l-2-.54a12.2,12.2,0,0,0-3.09-.34l-1.31,0-1.23,0H45.5a1.66,1.66,0,0,0-1.67,1.19,4.88,4.88,0,0,1-4.78,3H30.57c-3.29,0-5.26-2-5.26-5.31q0-11.56,0-23.12c0-3.36,2-5.38,5.32-5.38h8.44a4.8,4.8,0,0,1,4.64,2.81,2.29,2.29,0,0,0,2.14,1.35h.73a15.86,15.86,0,0,0,6.08-1.18,26.27,26.27,0,0,1,10-2.09h.1c4.55,0,8.72,1.63,13.12,5.08l.36.27a3,3,0,0,1,.57.48,7.16,7.16,0,0,0,6,2.66c.24,0,.48,0,.72,0,1.13,0,2.32-.07,3.76-.07,1.15,0,2.31,0,3.46,0,1,0,2,0,3,0A6,6,0,0,1,97.81,108a2.58,2.58,0,0,0,1.75.75,3.13,3.13,0,0,0,1.45-.43l.78-.4c5.3-2.75,10.77-5.6,16.19-8.34a8.63,8.63,0,0,1,3.86-1,7,7,0,0,1,4.21,1.5,6.74,6.74,0,0,1,2.7,5.35,7.34,7.34,0,0,1-2.92,5.85c-2.08,1.62-4.31,3.17-6.45,4.66l-1.75,1.22a1.32,1.32,0,0,1-.76.26h0A1,1,0,0,1,116,117a1.15,1.15,0,0,1-.25-.83,1.27,1.27,0,0,1,.56-.79c1.44-1.06,2.9-2.1,4.36-3.13l3.23-2.31c2.1-1.52,3-3.65,2.38-5.71a4.56,4.56,0,0,0-4.5-3.38,6,6,0,0,0-2.65.65c-2,1-4,2-6,3.06l-5,2.55q-3.18,1.65-6.36,3.26a2.19,2.19,0,0,0-1.33,2.41,7.16,7.16,0,0,1-1.76,5.71,7.89,7.89,0,0,1-5.87,2.55h-.22C90.44,121,88,121,85.11,121c-1.86,0-3.72,0-5.57,0L74,121h-.41c-.51,0-1.36-.12-1.46-.91a1.14,1.14,0,0,1,.2-.91,1.48,1.48,0,0,1,1.12-.38h19.3c2.6,0,4.54-1.21,5.32-3.31a5,5,0,0,0-.55-4.62,5.16,5.16,0,0,0-4.25-2.22l-6.4,0c-2,0-3.9,0-5.85,0H80.9A5.19,5.19,0,0,1,77,107.1c-3.4-3.25-6.4-5.15-9.73-6.15a16.73,16.73,0,0,0-4.89-.72A23.37,23.37,0,0,0,54.06,102,20,20,0,0,1,47,103.58l-.82,0H46a1.73,1.73,0,0,0-1.29.49,2,2,0,0,0-.51,1.43c0,5.48,0,11,0,16.44v.72a2,2,0,0,0,.47,1.47,1.61,1.61,0,0,0,1.18.46h.23a18,18,0,0,1,1.82-.09c3.69,0,7.17,1,10.85,2.12,1.27.37,2.58.76,3.89,1.1,5.32,1.37,10.72,2.83,15.94,4.25l4.88,1.32a12.21,12.21,0,0,0,3.09.41,13,13,0,0,0,6.56-1.89,51.88,51.88,0,0,0,4.33-2.91c.68-.49,1.35-1,2-1.45a1.37,1.37,0,0,1,.74-.28,1,1,0,0,1,.59.2,1.06,1.06,0,0,1,.46,1.21.67.67,0,0,1-.23.45l-1.38,1c-3,2.21-5.8,4.31-9.25,5.33-.5.15-1,.27-1.5.4l-.55.14ZM34.68,99.34c-1.4,0-2.8,0-4.19,0a2.72,2.72,0,0,0-3,3q0,11.61,0,23.23a2.74,2.74,0,0,0,3.06,3.06H38.9c2.07,0,3.08-1,3.08-3.12V102.45c0-2-1-3.08-3-3.1Z"/></svg>