<svg id="Layer_1" data-name="Layer 1" xmlns="http://www.w3.org/2000/svg" viewBox="0 0 156 157"><defs><style>.cls-1{fill:#fff;}</style></defs><path class="cls-1" d="M20.67,128.23V21H84.29V53.57l1.09.15a2.33,2.33,0,0,0,.41,0h10.4q7.44,0,14.89,0a2.57,2.57,0,0,0,1.87-1,6.4,6.4,0,0,1,5.44-2.67l7.37,0h9.57V108.5a1.68,1.68,0,0,0-.14.3c-1.07,3.41-3.14,4.93-6.69,4.93H84.26v14.5Zm1.7-1.64H82.55v-12.8H22.37ZM62.42,75q0,14.51,0,29c0,.45,0,.89,0,1.34,0,1.86.1,3.61-.81,5.24l-.84,1.49h67.71c3.3,0,5.19-1.91,5.19-5.25V51.76H118.84c-3.57,0-5.38,1.82-5.39,5.39v5.53h-51Zm-10.94,32a6.27,6.27,0,0,0,0,.75,4.7,4.7,0,0,0,4.61,4.26,4.65,4.65,0,0,0,1.6-.28c2-.72,3.05-2.47,3.05-4.94V61h51V55.49H51.48Zm-29.11,5H51.25l-.64-1.41c-.91-2-.84-4.09-.77-6.31a24.92,24.92,0,0,0-.12-4.22l-.12-.86H22.37Zm0-14.57H49.79V84.66H22.38Zm0-14.6H49.78V70H22.4Zm0-14.55H49.79V55.49H22.41Zm0-14.6H82.56V40.88H22.37Zm0-14.59H82.59V29.88h-3.5V28.22h3.49V22.68H22.37v5.58h3.51v1.66H22.37Z"/><rect class="cls-1" x="72.55" y="131.42" width="7.23" height="4.62"/><rect class="cls-1" x="25.19" y="131.42" width="7.23" height="4.62"/><path class="cls-1" d="M97.23,95.46V84.3c0-2-1.14-3.36-2.81-3.36h-.1c-1.66.06-2.73,1.37-2.74,3.35V95.43H89.94V92.72q0-4.5,0-9a4.49,4.49,0,0,1,4.44-4.47,4.39,4.39,0,0,1,2.26.63,2.75,2.75,0,0,0,1.42.46,2.65,2.65,0,0,0,1.38-.44,4.38,4.38,0,0,1,2.28-.65,4.47,4.47,0,0,1,4.44,4.44q0,4.14,0,8.28v3.48h-1.64V92.18c0-2.74,0-5.47,0-8.21a2.87,2.87,0,0,0-2.81-3A2.93,2.93,0,0,0,98.87,84V95.46Z"/><path class="cls-1" d="M116.66,95.52h-4.79V93.86h7.6a3.49,3.49,0,0,0,2.52-1,2.58,2.58,0,0,0,.74-1.92,3,3,0,0,0-3.2-2.76h-3.31a4.46,4.46,0,0,1,0-8.92h8v1.65h-7.06c-3.25,0-3.76,1.74-3.78,2.78a2.56,2.56,0,0,0,.71,1.88,4.09,4.09,0,0,0,3,1h2.94a4.47,4.47,0,0,1,.18,8.91Q118.49,95.52,116.66,95.52Z"/><path class="cls-1" d="M84.2,95.58l-1.37,0a27.93,27.93,0,0,1-5.09-.36c-3.81-.74-6.5-4.71-6-8.85a8.19,8.19,0,0,1,8-7.07h4.54v1.65H80.19a6.74,6.74,0,0,0-4.55,1.58,6.38,6.38,0,0,0-1.92,7,6.47,6.47,0,0,0,6,4.38q1,0,2.1,0l2.36,0Z"/><rect class="cls-1" x="31.67" y="28.33" width="41.64" height="1.5"/><rect class="cls-1" x="57.18" y="46.54" width="16.12" height="1.5"/><rect class="cls-1" x="28.01" y="46.54" width="1.54" height="1.49"/><rect class="cls-1" x="35.34" y="46.55" width="1.5" height="1.52"/><rect class="cls-1" x="42.63" y="46.55" width="1.46" height="1.54"/><rect class="cls-1" x="49.93" y="46.55" width="1.46" height="1.54"/><rect class="cls-1" x="57.2" y="119.48" width="19.75" height="1.47"/><rect class="cls-1" x="28.06" y="119.42" width="1.48" height="1.54"/><rect class="cls-1" x="35.34" y="119.45" width="1.54" height="1.48"/><rect class="cls-1" x="42.64" y="119.46" width="1.5" height="1.5"/><rect class="cls-1" x="49.88" y="119.45" width="1.54" height="1.49"/><rect class="cls-1" x="28.05" y="104.87" width="1.5" height="1.52"/><rect class="cls-1" x="35.3" y="104.87" width="1.54" height="1.48"/><rect class="cls-1" x="42.59" y="104.87" width="1.54" height="1.48"/><rect class="cls-1" x="42.57" y="75.72" width="1.54" height="1.46"/><rect class="cls-1" x="35.33" y="75.7" width="1.52" height="1.5"/><rect class="cls-1" x="28.05" y="75.71" width="1.5" height="1.52"/><rect class="cls-1" x="42.59" y="61.12" width="1.54" height="1.49"/><rect class="cls-1" x="35.34" y="61.1" width="1.5" height="1.5"/><rect class="cls-1" x="28.06" y="61.14" width="1.48" height="1.54"/><rect class="cls-1" x="28.05" y="90.3" width="1.46" height="1.54"/><rect class="cls-1" x="35.31" y="90.3" width="1.52" height="1.49"/><rect class="cls-1" x="42.62" y="90.28" width="1.52" height="1.5"/></svg>