<svg id="Layer_1" data-name="Layer 1" xmlns="http://www.w3.org/2000/svg" viewBox="0 0 156 157"><defs><style>.cls-1{fill:#4179a8;}</style></defs><path class="cls-1" d="M39.33,92.41a1.87,1.87,0,0,1-1.26-.74L34,87.08l-2.19-2.47A2.26,2.26,0,0,1,31,83v-.12a1.9,1.9,0,0,1,.58-1.39l1.57-1.78c1.69-1.91,3.39-3.83,5.1-5.73a1.42,1.42,0,0,1,1-.52,1.1,1.1,0,0,1,.72.28,1.13,1.13,0,0,1,.43.76,1.5,1.5,0,0,1-.44,1c-1.62,1.87-3.27,3.78-5,5.57A2.34,2.34,0,0,0,35,84.69c1.22,1.27,2.41,2.63,3.56,3.94l1.26,1.44c1.1,1.24.45,1.83.24,2A1.11,1.11,0,0,1,39.33,92.41Z"/><path class="cls-1" d="M66.44,92.41a1.14,1.14,0,0,1-.75-.32c-.7-.63-.34-1.34.08-1.83l.15-.17c1.65-1.88,3.35-3.83,5.07-5.69a2,2,0,0,0,0-3c-1.47-1.6-2.91-3.23-4.35-4.87l-1-1.09a1,1,0,0,1-.24-1.34,1.09,1.09,0,0,1,1.14-.64h.14a1.38,1.38,0,0,1,.84.56l2.07,2.32c1.48,1.67,3,3.34,4.44,5a2,2,0,0,1,0,3.09c-2.31,2.67-4.63,5.25-6.59,7.42A1.49,1.49,0,0,1,66.44,92.41Z"/><path class="cls-1" d="M50.45,94.2a1.23,1.23,0,0,1-1-.44,1.11,1.11,0,0,1-.2-1q2.39-10.09,4.8-20.17a1.3,1.3,0,0,1,1.19-1.1l.23,0a1.12,1.12,0,0,1,.75.49,1.44,1.44,0,0,1,.12,1.1Q54,83.14,51.65,93.1c-.23,1-.79,1.1-1.19,1.1Z"/><path class="cls-1" d="M52.65,114.18a2.48,2.48,0,0,1-2.55-2.37,2.42,2.42,0,0,1,2.39-2.52,2.45,2.45,0,1,1,.16,4.89Z"/><path class="cls-1" d="M52.61,112.88a1.18,1.18,0,0,1-1.21-1.12,1.15,1.15,0,0,1,.3-.81,1.18,1.18,0,0,1,.83-.36h0a1.22,1.22,0,0,1,1.3,1.13,1.24,1.24,0,0,1-1.2,1.16Z"/><path class="cls-1" d="M106.88,136.43a4.17,4.17,0,0,1-4.44-4.19,2.4,2.4,0,0,0-2-2.54l-.12,0a6.67,6.67,0,0,0-3.14-1A4.87,4.87,0,0,0,93.91,130a2.32,2.32,0,0,1-1.55.52,4.64,4.64,0,0,1-3-1.21c-1.2-1.1-2.33-2.23-3.36-3.34a4.11,4.11,0,0,1,.09-5.86,2.33,2.33,0,0,0,.39-3.11,4.19,4.19,0,0,1-.59-1.3,3.34,3.34,0,0,0-3.78-2.9h-.21c-2.5,0-5.21.06-8.53.06H63.52a1.15,1.15,0,0,1-1.23-.82,1.17,1.17,0,0,1,.63-1.39,1.52,1.52,0,0,1,.67-.09h7c2,0,3.93,0,5.9,0h0a2.39,2.39,0,0,0,1.84-.63,2.34,2.34,0,0,0,.53-1.82c-.06-.89,0-1.77,0-2.72v-.83A4.29,4.29,0,0,1,83.14,100a2.35,2.35,0,0,0,2.46-2,.6.6,0,0,1,.09-.21c1-1.9,1.65-4-.46-6.31-1-1.06-.5-3.15.53-4.31A45.65,45.65,0,0,1,89.5,83.5a3.94,3.94,0,0,1,2.63-1A4.22,4.22,0,0,1,95,83.67a2.78,2.78,0,0,0,1.9.91A2.38,2.38,0,0,0,98.44,84s0,0,.09,0c1.88-.52,3.84-1.48,4.16-4.59.23-2.28,2.53-2.76,3.51-2.85a25.59,25.59,0,0,1,2.63-.14c.86,0,1.72,0,2.55.13a4.1,4.1,0,0,1,3.85,4.2,2.37,2.37,0,0,0,1.93,2.43,2.08,2.08,0,0,1,.39.14,7,7,0,0,0,3.22,1A4.12,4.12,0,0,0,124,82.7a1.42,1.42,0,0,1,.91-.23,1.83,1.83,0,0,1,.33,0l.44,0a2,2,0,0,0,1.45-.56,2.47,2.47,0,0,0,.58-1.85c0-9,0-16,0-22.43a2.35,2.35,0,0,0-.6-1.8,2.44,2.44,0,0,0-1.85-.61q-25.29,0-50.57,0l-52.71,0a2.54,2.54,0,0,0-1.88.62,2.56,2.56,0,0,0-.62,1.88q0,16.11,0,32.21v10.38a11.8,11.8,0,0,0,1.06,5.27,8,8,0,0,0,7.62,5h.16c1.95,0,3.9,0,5.85,0l7.1,0h.25a1.48,1.48,0,0,1,1.24.55,1,1,0,0,1,.06,1,1,1,0,0,1-1,.77q-2.11,0-4.23,0l-4.75,0c-2.42,0-4.4,0-6.25-.12-3.16-.15-5.75-1.92-7.69-5.25a12.11,12.11,0,0,1-1.7-6.14V85.57c0-17.56,0-35.7.05-53.55a11.19,11.19,0,0,1,6.72-10.77,9.06,9.06,0,0,1,3.9-.69l60.08,0h31a10.29,10.29,0,0,1,10.36,7.3,15.87,15.87,0,0,1,.85,5.51v8.34q0,20.89,0,41.77a3.86,3.86,0,0,0,1.2,2.94c2.17,2.13,2.23,4.27.21,6.54a2.06,2.06,0,0,0-.3,2.71,2.13,2.13,0,0,1,.3.63c.54,1.88,1.52,3.84,4.65,4,.71.05,1.77.41,2.74,2.91v6.51c-.86,1.8-1.79,2.67-3.15,3h0c-.2,0-.39,0-.58,0-2.34,0-3,2.08-3.4,3.32a2,2,0,0,1-.12.34,3.07,3.07,0,0,0,.41,4.18,4,4,0,0,1-.24,5.42c-1,1-2,2.1-3.2,3.22a4.36,4.36,0,0,1-3,1.27,4.14,4.14,0,0,1-2.85-1.19,2.77,2.77,0,0,0-1.9-.88,2.61,2.61,0,0,0-1.47.49c-2.14.63-4.09,1.61-4.37,4.81-.15,1.69-2.07,2.72-3.84,2.73h-4.24ZM96.4,125.21a3,3,0,0,1,1,.45,22,22,0,0,0,5.89,2.44c1.4.35,1.56.56,1.57,2.09,0,3.36.59,3.95,3.9,3.95,3.57,0,4.16-.58,4.22-4.16,0-1.33.18-1.54,1.41-1.84a22.55,22.55,0,0,0,5.9-2.4,3.83,3.83,0,0,1,1.27-.53c.23,0,.62.28,1.21.86,1.13,1.11,1.8,1.78,2.81,1.78s1.69-.68,2.8-1.8c2.51-2.51,2.52-3.34,0-5.87-.91-.93-1-1-.24-2.3a22.75,22.75,0,0,0,2.36-5.65c.41-1.59.49-1.65,2.12-1.66h1.09A3,3,0,0,0,136,110c.61-.62.6-1.41.59-2.51,0-.25,0-.53,0-.86,0-3.55-.55-4.14-4.06-4.16h-.13c-1.15,0-1.39-.19-1.7-1.29a24,24,0,0,0-2.46-6c-.81-1.36-.8-1.44.33-2.57,2.36-2.37,2.37-3.2,0-5.53-1.23-1.24-1.91-1.92-3-1.92s-1.74.67-3,1.88c-.63.61-.94.68-1.12.68a2.2,2.2,0,0,1-1-.39,22.4,22.4,0,0,0-6.11-2.54c-1.35-.34-1.52-.56-1.52-2,0-3.3-.6-3.88-3.93-3.88-3.54,0-4.12.57-4.19,4.1,0,1.25-.08,1.43-1.49,1.81a23.36,23.36,0,0,0-5.75,2.41,3,3,0,0,1-1.27.52c-.2,0-.53-.1-1.32-.88-.26-.25-.47-.47-.66-.66-.72-.74-1.24-1.27-2.07-1.27s-1.37.54-2.1,1.29l-.63.64c-2.58,2.54-2.59,3.38-.09,6,.9.92.94,1.17.32,2.2a24.36,24.36,0,0,0-2.44,5.74c-.45,1.65-.6,1.7-2.11,1.7-3.26,0-3.84.59-3.84,3.86,0,3.64.59,4.24,4.17,4.28h.12c1.14,0,1.38.36,1.56,1.11A22.74,22.74,0,0,0,89.73,118c.57,1,.53,1.27-.3,2.12-2.51,2.59-2.5,3.42,0,6,1.08,1.09,1.74,1.75,2.74,1.75s1.68-.68,2.79-1.81C95.57,125.51,95.92,125.24,96.4,125.21ZM28.27,22.85a8.08,8.08,0,0,0-7.74,4.95,11.63,11.63,0,0,0-1.07,5.27c0,1.7,0,3.4,0,5.1,0,4,0,8.08,0,12.12a2.64,2.64,0,0,0,.63,2,2.64,2.64,0,0,0,2,.64q16.35,0,32.67,0h71.07a1.79,1.79,0,0,0,1.33-.51,2,2,0,0,0,.54-1.51c0-2.47,0-4.93,0-7.4,0-3.9,0-7.94-.07-11.92a8.58,8.58,0,0,0-9-8.69H56.08l-27.78,0Z"/><path class="cls-1" d="M92.86,44.92H88.7a6.88,6.88,0,0,1-7-6.9,7,7,0,0,1,6.91-7L99.5,31c3.62,0,7.23,0,10.85,0a6.88,6.88,0,0,1,6.94,7,6.87,6.87,0,0,1-7,6.85Zm.28-11.48-4.5,0a4.43,4.43,0,0,0-4.49,5,4.24,4.24,0,0,0,4.16,4c3.28.08,6.75.12,10.61.12,4.19,0,8.29,0,11.74-.09a4.28,4.28,0,0,0,1.69-.42,4.56,4.56,0,0,0,2.57-4.77,4.41,4.41,0,0,0-4.3-3.84l-4.7,0H93.14Z"/><path class="cls-1" d="M59.8,44.91a6.89,6.89,0,0,1-4.9-2.09,6.82,6.82,0,0,1-2-4.89,7.08,7.08,0,0,1,7-6.9,7,7,0,0,1,6.9,7,6.85,6.85,0,0,1-6.95,6.86Zm0-11.46A4.45,4.45,0,0,0,55.31,38a4.58,4.58,0,0,0,1.33,3.27,4.51,4.51,0,0,0,3.21,1.33A4.64,4.64,0,0,0,64.46,38a4.37,4.37,0,0,0-1.3-3.19,4.59,4.59,0,0,0-3.31-1.38h0Z"/><path class="cls-1" d="M38.42,44.91a6.89,6.89,0,0,1-6.77-7,6.9,6.9,0,0,1,11.87-4.81,6.82,6.82,0,0,1,2,4.87,7,7,0,0,1-7,6.9Zm.15-11.46A4.54,4.54,0,0,0,34,37.9a4.5,4.5,0,0,0,1.31,3.27,4.65,4.65,0,0,0,3.28,1.39,4.6,4.6,0,0,0,4.58-4.5,4.54,4.54,0,0,0-1.29-3.26,4.59,4.59,0,0,0-3.29-1.35Z"/><path class="cls-1" d="M109,120.16c-.37,0-.74,0-1.11,0a13.68,13.68,0,0,1,1-27.32l.67,0a13.52,13.52,0,0,1,9.58,4.52A13.65,13.65,0,0,1,109,120.16Zm-.06-25a11.31,11.31,0,1,0,11.27,11.31A11.27,11.27,0,0,0,108.9,95.16Z"/></svg>