<svg id="Layer_1" data-name="Layer 1" xmlns="http://www.w3.org/2000/svg" viewBox="0 0 156 157"><defs><style>.cls-1{fill:#fff;}</style></defs><path class="cls-1" d="M46.8,75.94a13,13,0,0,0,6.57-1.35,4.52,4.52,0,0,0,2.26-2.14,14.06,14.06,0,0,1,12.71-8,13.81,13.81,0,0,1,4.8.86,3.13,3.13,0,0,0,1.14.23,2.61,2.61,0,0,0,2.11-1.22A14.06,14.06,0,0,1,87.7,58.59a13.71,13.71,0,0,1,7.16,2,13.55,13.55,0,0,1,6.85,11.29A3.17,3.17,0,0,0,104,75.09a5.14,5.14,0,0,1,2,1.09A6.31,6.31,0,0,0,110.77,78l.74,0c.64,0,1.29,0,1.93,0h4.42v-22h-9.51v-1.2H112v-6.5h-4.76l-2,0c-2.84-.05-4.61-1.78-4.64-4.52-.06-6.28-.06-12.73,0-19.16A4.36,4.36,0,0,1,105.3,20h26.55a4.4,4.4,0,0,1,4.7,4.68q0,9.42,0,18.83a5.09,5.09,0,0,1-.12,1.29,4.3,4.3,0,0,1-4.32,3.42c-.72,0-1.43,0-2.15,0h-4.84v6.53h3.63V56H119.2V79.14h-9.44l2,6.53H123v19.24h13.51v32.17H108.33V104.9H121.7v-18H111.63l-.36,1.4c-.08.3-.15.59-.22.89a12.19,12.19,0,0,1-11.5,9.24q-10.68,0-21.37,0t-21.66,0A11.94,11.94,0,0,1,45.31,90.4a24.1,24.1,0,0,1-.72-2.9c-.1-.49-.2-1-.31-1.47L44,85H38.16v19.91h1.33l3.28,0H46c1.38,0,2.76,0,4.14,0h.21a5.19,5.19,0,0,1,3.79,1.47,5.1,5.1,0,0,1,1.31,3.81c-.09,3.56-.07,7.16-.05,10.65,0,1.53,0,3.06,0,4.59v2.72h3.91a.28.28,0,0,0,0,.09c0,1,0,2,0,3,.18,3.1-.92,4.92-3.56,5.88h-33a5.9,5.9,0,0,1-3.36-3.37V128h3.8v-7.22q0-5.28,0-10.56c0-3.54,1.79-5.34,5.32-5.35h5.85c.26,0,.52,0,.81,0l.36,0,1.22-.09V83.67H39.9q1.51,0,3,0a2.67,2.67,0,0,0,2.2-1.11c.44-.81.8-1.63,1.19-2.49l.43-1,.85-1.88H32.94v-9.6H31.61l-2,0H27.7c-.8,0-1.58,0-2.37,0h-.56c-2.78,0-4.43-1.11-5.32-3.59V23.34c1-2.39,2.7-3.42,5.69-3.42h.45c2.76.09,5.6.13,8.43.13s5.72,0,8.61-.13h.16a4.83,4.83,0,0,1,4.94,5.14c-.07,8.56-.06,17.26,0,25.67,0,3.88,0,7.77,0,11.65a7.76,7.76,0,0,1-.14,1.76A4.48,4.48,0,0,1,43,67.58l-2.82,0H34.27v8.34Zm-26,54.68c-.15,1.64-.19,3.09.74,4.1s2.36,1.12,3.68,1.12h.21c3.23,0,6.47-.05,9.7-.05H51.87l2.75,0a3.2,3.2,0,0,0,3.43-3.36q0-.57,0-1.17v-1.86H20.9Zm88.82,5.12h25.6v-14h-25.6ZM28.71,106.2c-3,0-4.2,1.2-4.2,4.15v15.19c0,.28,0,.56,0,.85l.07,1.63H54.18V110.19c0-2.84-1.19-4-4.08-4H28.71Zm80.92,14.08h25.61v-14H109.63ZM68.25,65.67a12.67,12.67,0,0,0-12,8.53c-.36,1-.64,1.23-1.63,1.39A10.88,10.88,0,0,0,56.6,97.16q10.65,0,21.31,0t21.49,0c5.67,0,10.1-4.21,10.77-10.19.56-5-3.27-10.14-8.54-11.37-.43-.1-.88-.18-1.33-.27a13.18,13.18,0,0,0-1.42-8.84,12.83,12.83,0,0,0-8.09-6.22,11.92,11.92,0,0,0-3.13-.42,13.08,13.08,0,0,0-12,8.07c-.36-.21-.69-.41-1-.59A13.53,13.53,0,0,0,68.25,65.67ZM20.74,56.33c0,2.3,0,4.67,0,7a3,3,0,0,0,3.16,3c.39,0,.78,0,1.17,0H42.71c3.32,0,3.63-2.22,3.64-2.89.06-2.36,0-4.75,0-7.07,0-.93,0-4.12,0-4.12H20.75Zm92.73-1.7H123.7V48.31H113.47ZM20.76,50.76H46.35V29.07H20.76ZM131,47h.32l.48,0a2.63,2.63,0,0,0,1.38-.34,4.66,4.66,0,0,0,1.95-2.13,4.6,4.6,0,0,0,.18-2.05c0-.2,0-.4,0-.6V40.55H102.09l-.15,1.16c-.19,1.51-.24,3,.71,4.12A4.64,4.64,0,0,0,106.29,47h.15c3.59,0,7.19,0,10.78,0ZM105.7,21.25c-2.71,0-3.87,1.17-3.88,3.92,0,3.33,0,6.67,0,10v1.57a7.65,7.65,0,0,0,.05.81l.11,1.6h33.19l.08-1.59c0-.26,0-.49,0-.72V35.38c0-3.45,0-6.9,0-10.34,0-2.66-1.16-3.79-3.86-3.79H105.7Zm-71.86,0H24.12a3.16,3.16,0,0,0-3.4,3.38c0,.36,0,.71,0,1.11v1.88H46.44V25.78c0-.39,0-.76,0-1.13a3.19,3.19,0,0,0-3.49-3.4Z"/><rect class="cls-1" x="31.07" y="58.61" width="5" height="1.14"/><rect class="cls-1" x="122.39" y="112.62" width="5.65" height="1.27"/><rect class="cls-1" x="117.42" y="112.4" width="1.62" height="1.71"/><rect class="cls-1" x="122.39" y="127.48" width="5.65" height="1.27"/><rect class="cls-1" x="117.42" y="127.26" width="1.62" height="1.71"/></svg>