<svg xmlns="http://www.w3.org/2000/svg" viewBox="0 0 139.35 29.22"><defs><style>.cls-1{fill:#017bf4;}</style></defs><g id="Layer_2" data-name="Layer 2"><g id="OBJECTS"><path class="cls-1" d="M29.78,24.9h-7c-.33,0-.67,0-1,0,0,0-.06,0-.08,0s0,0,0-.06c.61-.75,1.2-1.51,1.86-2.21a.67.67,0,0,1,.48-.18l.37,0s.07,0,.09,0,0-.06,0-.09l-1.25-1.47-3.54-4.2L17.4,14c-.8-.94-1.59-1.89-2.39-2.84-.12-.14-.12-.14-.24,0L13.44,12.7c-.06.06-.06.1,0,.17.45.52.9,1.06,1.35,1.59s.92,1.07,1.37,1.61c.6.69,1.19,1.38,1.78,2.08l1.77,2.06c.45.52.9,1.06,1.36,1.58.08.09.07.15,0,.23-1.45,1.71-2.91,3.41-4.37,5.12l-1.7,2c-.08.1-.12.09-.2,0l-3.08-3.63L8.74,22c-.09-.11-.08-.16,0-.26l3-3.48c.07-.08.09-.11.17,0L13,19.63a.67.67,0,0,1,0,.91c-.35.43-.71.86-1.07,1.28-.07.08-.06.12,0,.19l2.65,3.12a2.52,2.52,0,0,1,.21.25c0,.07.09.06.14,0l.93-1.1L17.81,22a.13.13,0,0,0,0-.21L14.93,18.4l-2.55-3-.53-.63c-.06-.07-.09-.06-.14,0-.49.58-1,1.16-1.46,1.73l-1.71,2-2.4,2.84-.81.95s-.07.06-.08.12a1.1,1.1,0,0,0,.31,0,2.12,2.12,0,0,1,1.25.79c.22.25.4.54.6.81a3.57,3.57,0,0,0,.67.74H0L1.29,23.3c1-1.2,2.06-2.41,3.1-3.61s2-2.33,3-3.49l2.37-2.79c.15-.17.3-.35.46-.52a.1.1,0,0,0,0-.16c-.43-.48-.85-1-1.27-1.45L7.44,9.6c-.09-.11-.18-.22-.28-.32s-.06-.1,0-.17L8.37,7.67,10.64,5l2.75-3.24L14.8.1a.15.15,0,0,0,.06-.1h0l2.58,3,3.91,4.61c.41.48.82,1,1.24,1.45,0,.05.06.08,0,.14-.49.57-1,1.14-1.46,1.72-.09.1-.13.08-.2,0L17.7,7.11C16.79,6,15.88,5,15,3.91c-.07-.08-.1-.09-.18,0L13.87,5,12,7.27,10.39,9.11s-.06.06,0,.12l1.08,1.27a.52.52,0,0,0,.78,0l.44-.51L14.82,7.5c.06-.07.09-.09.16,0l2.8,3.29q1.41,1.64,2.81,3.29l3.45,4L26.5,21l3.19,3.74s0,.08.09.08Z"/><path d="M41.4,10.41v8.12h-2V10.41Z"/><path d="M48.67,10.41V12H46.52v6.54h-2V12H42.39V10.41Z"/><path d="M58.33,18.53l-.76-.73a4.27,4.27,0,0,1-2.68.85,4.09,4.09,0,0,1-1.63-.3,2.52,2.52,0,0,1-1.07-.87,2.29,2.29,0,0,1-.37-1.31,2.38,2.38,0,0,1,.41-1.38,2.94,2.94,0,0,1,1.23-1,2.37,2.37,0,0,1-.43-.71,2.17,2.17,0,0,1-.13-.74,2,2,0,0,1,.3-1.06,2,2,0,0,1,.88-.74,3.14,3.14,0,0,1,1.36-.27,2.81,2.81,0,0,1,1.35.29,1.94,1.94,0,0,1,.83.77,2,2,0,0,1,.26,1.07H56a.61.61,0,0,0-.15-.48.57.57,0,0,0-.45-.17.66.66,0,0,0-.46.16.55.55,0,0,0-.19.42,1,1,0,0,0,.16.5,3.27,3.27,0,0,0,.49.62l2,1.93a1.47,1.47,0,0,1,.06-.14,1.72,1.72,0,0,0,.09-.19l.43-.72h2l-.56,1a9.61,9.61,0,0,1-.72,1.3l2,1.92Zm-2-1.91-1.8-1.75A1.3,1.3,0,0,0,53.72,16a.92.92,0,0,0,.35.73,1.31,1.31,0,0,0,.91.3A2.29,2.29,0,0,0,56.36,16.62Z"/><path d="M69.84,15.06a2.13,2.13,0,0,1-.28,2.87,3,3,0,0,1-2,.6H63.8V10.41h3.65a3,3,0,0,1,1.94.57,1.88,1.88,0,0,1,.7,1.53,1.89,1.89,0,0,1-.38,1.2,1.93,1.93,0,0,1-1,.65A1.89,1.89,0,0,1,69.84,15.06Zm-4.07-1.37h1.3a1.14,1.14,0,0,0,.74-.21.74.74,0,0,0,.26-.63.78.78,0,0,0-.26-.64,1.15,1.15,0,0,0-.74-.22h-1.3Zm2.23,3a.81.81,0,0,0,.27-.66.83.83,0,0,0-.28-.67,1.17,1.17,0,0,0-.78-.24H65.77v1.79h1.46A1.18,1.18,0,0,0,68,16.71Z"/><path d="M73.39,17H76v1.53H71.42V10.41h2Z"/><path d="M78.67,18.08a4,4,0,0,1-1.51-1.49,4.1,4.1,0,0,1-.56-2.14,4,4,0,0,1,.56-2.14,3.9,3.9,0,0,1,1.51-1.48,4.35,4.35,0,0,1,4.2,0,3.75,3.75,0,0,1,1.5,1.48,4.13,4.13,0,0,1,.55,2.14,4.19,4.19,0,0,1-.55,2.14,3.93,3.93,0,0,1-1.51,1.49,4.24,4.24,0,0,1-2.09.53A4.31,4.31,0,0,1,78.67,18.08Zm3.66-1.92a2.48,2.48,0,0,0,.58-1.71,2.45,2.45,0,0,0-.58-1.72,2,2,0,0,0-1.56-.64,2,2,0,0,0-1.57.63,2.46,2.46,0,0,0-.58,1.73,2.45,2.45,0,0,0,.58,1.71,2,2,0,0,0,1.57.64A2,2,0,0,0,82.33,16.16Z"/><path d="M86.21,12.31a3.66,3.66,0,0,1,1.45-1.47,4.21,4.21,0,0,1,2.11-.52,4,4,0,0,1,2.47.76,3.64,3.64,0,0,1,1.38,2.08H91.44a1.71,1.71,0,0,0-.68-.77,1.94,1.94,0,0,0-1-.27,1.89,1.89,0,0,0-1.48.64,2.49,2.49,0,0,0-.56,1.7,2.51,2.51,0,0,0,.56,1.7,1.91,1.91,0,0,0,1.48.63,2,2,0,0,0,1-.26,1.79,1.79,0,0,0,.68-.78h2.18a3.64,3.64,0,0,1-1.38,2.08,4.07,4.07,0,0,1-2.47.75,4.21,4.21,0,0,1-2.11-.52,3.7,3.7,0,0,1-1.45-1.46,4.32,4.32,0,0,1-.52-2.14A4.33,4.33,0,0,1,86.21,12.31Z"/><path d="M99.54,18.53l-2.73-3.59v3.59h-2V10.41h2V14l2.71-3.56h2.32l-3.15,4L102,18.53Z"/><path d="M103.08,12.31a3.66,3.66,0,0,1,1.45-1.47,4.21,4.21,0,0,1,2.11-.52,4,4,0,0,1,2.47.76,3.64,3.64,0,0,1,1.38,2.08h-2.17a1.79,1.79,0,0,0-.69-.77,1.93,1.93,0,0,0-1-.27,1.89,1.89,0,0,0-1.49.64,2.49,2.49,0,0,0-.56,1.7,2.51,2.51,0,0,0,.56,1.7,1.92,1.92,0,0,0,1.49.63,2,2,0,0,0,1-.26,1.88,1.88,0,0,0,.69-.78h2.17a3.64,3.64,0,0,1-1.38,2.08,4.07,4.07,0,0,1-2.47.75,4.21,4.21,0,0,1-2.11-.52,3.7,3.7,0,0,1-1.45-1.46,4.32,4.32,0,0,1-.52-2.14A4.33,4.33,0,0,1,103.08,12.31Z"/><path d="M118.73,10.41v8.12h-2V15.19h-3.08v3.34h-2V10.41h2v3.18h3.08V10.41Z"/><path d="M125.21,17.09h-3l-.49,1.44h-2.07l2.94-8.12h2.29l2.94,8.12H125.7Zm-.51-1.52-1-3-1,3Z"/><path d="M130.66,10.41v8.12h-2V10.41Z"/><path d="M139.35,18.53h-2l-3.3-5v5h-2V10.41h2l3.3,5v-5h2Z"/></g></g></svg>