<svg xmlns="http://www.w3.org/2000/svg" width="65.365" height="52.251" viewBox="0 0 65.365 52.251"><defs><style>.a{fill:#dedede;fill-rule:evenodd;}</style></defs><g transform="translate(327.075 491.711) rotate(180)"><path class="a" d="M311.85,439.46c17.121,0,17.776,20.417,11.828,32.267-2.819,5.612-7.743,11.847-16.429,19.985q-3.773-4.008-7.545-8.02c5.9-5.529,9.758-9.9,12.24-13.63a15.3,15.3,0,1,1-.094-30.6Zm-34.838,0c17.121,0,17.776,20.417,11.826,32.267-2.817,5.612-7.742,11.847-16.429,19.985l-7.544-8.02c5.9-5.529,9.758-9.9,12.24-13.63a15.3,15.3,0,1,1-.094-30.6Z" transform="translate(0 0)"/></g></svg>